<svg width="554" height="611" viewbox="0 0 554 611" fill="none" xmlns="http://www.w3.org/2000/svg">
<g filter="url(#filter0_d_1_243)">
<path d="M284 167L400.913 236.25V374.75L284 444L167.087 374.75V236.25L284 167Z" fill="url(#paint0_linear_1_243)"/>
<path d="M168.087 236.82L284 168.162L399.913 236.82V374.18L284 442.838L168.087 374.18V236.82Z" stroke="url(#paint1_linear_1_243)" stroke-width="2"/>
</g>
<path d="M177.613 242.319L284 179.163L390.387 242.319V368.681L284 431.837L177.613 368.681V242.319Z" fill="url(#paint2_radial_1_243)" stroke="url(#paint3_linear_1_243)" stroke-width="2"/>
<path d="M284 314.905C283.37 314.905 221 314.353 221 294.646C221 288.847 227.326 283.813 239.302 280.085C240.677 279.65 242.157 280.389 242.604 281.716C243.05 283.043 242.299 284.471 240.913 284.902C230.098 288.27 226.25 292.144 226.25 294.646C226.25 304.061 259.887 309.84 284 309.84C304.727 309.84 341.75 304.765 341.75 294.646C341.75 291.506 336.531 287.936 327.79 285.094C326.415 284.649 325.68 283.21 326.142 281.888C326.604 280.566 328.1 279.842 329.465 280.298C343.96 285.003 347 290.701 347 294.646C347 314.353 284.63 314.905 284 314.905Z" fill="url(#paint4_linear_1_243)"/>
<path d="M284 365.551C253.461 365.551 221 358.45 221 345.292V294.646C221 293.248 222.176 292.114 223.625 292.114C225.074 292.114 226.25 293.248 226.25 294.646V345.292C226.25 351.638 248.221 360.486 284 360.486C319.779 360.486 341.75 351.638 341.75 345.292V294.646C341.75 293.248 342.926 292.114 344.375 292.114C345.824 292.114 347 293.248 347 294.646V345.292C347 358.45 314.539 365.551 284 365.551Z" fill="url(#paint5_linear_1_243)"/>
<path d="M239.954 359.929C239.277 359.929 238.605 359.681 238.09 359.179C237.072 358.187 237.082 356.581 238.106 355.599L256.371 338.126C259.132 335.467 263.458 335.472 266.22 338.131L276.678 347.764C277.077 348.149 277.57 348.377 277.896 348.326C278.347 348.321 278.788 348.113 279.177 347.728L294.648 332.236C297.462 329.526 301.626 329.389 304.382 331.901L330.354 353.973C331.446 354.895 331.551 356.5 330.59 357.549C329.634 358.597 327.97 358.703 326.889 357.771L300.849 335.639C299.951 334.844 299.011 335.193 298.397 335.781L282.951 351.248C281.565 352.616 279.786 353.37 277.932 353.385C275.895 353.436 274.352 352.687 273.008 351.38L262.55 341.747C261.768 340.987 260.812 341.003 260.077 341.706L241.807 359.19C241.293 359.686 240.621 359.929 239.954 359.929Z" fill="url(#paint6_linear_1_243)"/>
<path d="M276.125 335.163C271.783 335.163 268.25 331.755 268.25 327.566C268.25 323.378 271.783 319.969 276.125 319.969C280.467 319.969 284 323.378 284 327.566C284 331.755 280.467 335.163 276.125 335.163ZM276.125 325.034C274.681 325.034 273.5 326.168 273.5 327.566C273.5 328.964 274.681 330.098 276.125 330.098C277.569 330.098 278.75 328.964 278.75 327.566C278.75 326.168 277.569 325.034 276.125 325.034Z" fill="url(#paint7_linear_1_243)"/>
<path d="M323.375 310.6C321.926 310.6 320.75 309.465 320.75 308.067V296.875C320.75 295.477 321.926 294.342 323.375 294.342C324.824 294.342 326 295.477 326 296.875V308.067C326 309.465 324.824 310.6 323.375 310.6Z" fill="url(#paint8_linear_1_243)"/>
<path d="M244.625 310.6C243.176 310.6 242 309.465 242 308.067V298.343C242 296.946 243.176 295.811 244.625 295.811C246.074 295.811 247.25 296.946 247.25 298.343V308.067C247.25 309.465 246.074 310.6 244.625 310.6Z" fill="url(#paint9_linear_1_243)"/>
<path d="M286.625 289.582H278.75C275.852 289.582 273.5 287.308 273.5 284.517V264.258C273.5 261.468 275.852 259.194 278.75 259.194H289.25C290.699 259.194 291.875 260.328 291.875 261.726C291.875 263.124 290.699 264.258 289.25 264.258H278.75V271.855H286.625C289.523 271.855 291.875 274.129 291.875 276.92V284.517C291.875 287.308 289.523 289.582 286.625 289.582ZM278.75 276.92V284.517H286.625V276.92H278.75Z" fill="url(#paint10_linear_1_243)"/>
<path d="M310.25 289.582H302.375C299.477 289.582 297.125 287.308 297.125 284.517V264.258C297.125 261.468 299.477 259.194 302.375 259.194H310.25C313.148 259.194 315.5 261.468 315.5 264.258V284.517C315.5 287.308 313.148 289.582 310.25 289.582ZM299.75 284.517L302.375 284.522V284.517H299.75ZM302.375 284.517H310.25V264.258H302.375V284.517Z" fill="url(#paint11_linear_1_243)"/>
<path d="M263 289.582H255.125C253.676 289.582 252.5 288.447 252.5 287.049C252.5 285.651 253.676 284.517 255.125 284.517H263V276.92H255.125C253.676 276.92 252.5 275.786 252.5 274.388C252.5 272.99 253.676 271.855 255.125 271.855H263C265.898 271.855 268.25 274.129 268.25 276.92V284.517C268.25 287.308 265.898 289.582 263 289.582Z" fill="url(#paint12_linear_1_243)"/>
<path d="M263 276.92H255.125C253.676 276.92 252.5 275.786 252.5 274.388C252.5 272.99 253.676 271.855 255.125 271.855H263V264.258H255.125C253.676 264.258 252.5 263.124 252.5 261.726C252.5 260.328 253.676 259.194 255.125 259.194H263C265.898 259.194 268.25 261.468 268.25 264.258V271.855C268.25 274.646 265.898 276.92 263 276.92Z" fill="url(#paint13_linear_1_243)"/>
<path d="M328.625 259.194C324.283 259.194 320.75 255.785 320.75 251.597C320.75 247.408 324.283 244 328.625 244C332.966 244 336.5 247.408 336.5 251.597C336.5 255.785 332.966 259.194 328.625 259.194ZM328.625 249.065C327.181 249.065 326 250.199 326 251.597C326 252.995 327.181 254.129 328.625 254.129C330.068 254.129 331.25 252.995 331.25 251.597C331.25 250.199 330.068 249.065 328.625 249.065Z" fill="url(#paint14_linear_1_243)"/>
<defs>
<filter id="filter0_d_1_243" x="0.0865784" y="0" width="567.827" height="611" filterUnits="userSpaceOnUse" color-interpolation-filters="sRGB">
<feFlood flood-opacity="0" result="BackgroundImageFix"/>
<feColorMatrix in="SourceAlpha" type="matrix" values="0 0 0 0 0 0 0 0 0 0 0 0 0 0 0 0 0 0 127 0" result="hardAlpha"/>
<feOffset/>
<feGaussianBlur stdDeviation="83.5"/>
<feColorMatrix type="matrix" values="0 0 0 0 0 0 0 0 0 0.34 0 0 0 0 1 0 0 0 0.25 0"/>
<feBlend mode="normal" in2="BackgroundImageFix" result="effect1_dropShadow_1_243"/>
<feBlend mode="normal" in="SourceGraphic" in2="effect1_dropShadow_1_243" result="shape"/>
</filter>
<lineargradient id="paint0_linear_1_243" x1="284" y1="167" x2="284" y2="450" gradientunits="userSpaceOnUse">
<stop stop-color="#001AFF" stop-opacity="0"/>
<stop offset="1" stop-color="#4200FF" stop-opacity="0.47"/>
</lineargradient>
<lineargradient id="paint1_linear_1_243" x1="284" y1="141.665" x2="284" y2="791.939" gradientunits="userSpaceOnUse">
<stop stop-color="#0085FF"/>
<stop offset="1" stop-color="#0500FF" stop-opacity="0"/>
</lineargradient>
<radialgradient id="paint2_radial_1_243" cx="0" cy="0" r="1" gradientunits="userSpaceOnUse" gradienttransform="translate(284 305.5) rotate(90) scale(829.5 806.729)">
<stop stop-color="#000850" stop-opacity="0.13"/>
<stop offset="1" stop-color="#0047FF"/>
</radialgradient>
<lineargradient id="paint3_linear_1_243" x1="284" y1="457.415" x2="314.311" y2="11.9688" gradientunits="userSpaceOnUse">
<stop stop-color="#00A3FF"/>
<stop offset="1" stop-color="#0500FF" stop-opacity="0"/>
</lineargradient>
<lineargradient id="paint4_linear_1_243" x1="284" y1="279.96" x2="284" y2="314.905" gradientunits="userSpaceOnUse">
<stop stop-color="#00A3FF"/>
<stop offset="1" stop-color="#0038FF"/>
</lineargradient>
<lineargradient id="paint5_linear_1_243" x1="284" y1="292.114" x2="284" y2="365.551" gradientunits="userSpaceOnUse">
<stop stop-color="#00A3FF"/>
<stop offset="1" stop-color="#0038FF"/>
</lineargradient>
<lineargradient id="paint6_linear_1_243" x1="284.289" y1="330.106" x2="284.289" y2="359.929" gradientunits="userSpaceOnUse">
<stop stop-color="#00A3FF"/>
<stop offset="1" stop-color="#0038FF"/>
</lineargradient>
<lineargradient id="paint7_linear_1_243" x1="276.125" y1="319.969" x2="276.125" y2="335.163" gradientunits="userSpaceOnUse">
<stop stop-color="#00A3FF"/>
<stop offset="1" stop-color="#0038FF"/>
</lineargradient>
<lineargradient id="paint8_linear_1_243" x1="323.375" y1="294.342" x2="323.375" y2="310.6" gradientunits="userSpaceOnUse">
<stop stop-color="#00A3FF"/>
<stop offset="1" stop-color="#0038FF"/>
</lineargradient>
<lineargradient id="paint9_linear_1_243" x1="244.625" y1="295.811" x2="244.625" y2="310.6" gradientunits="userSpaceOnUse">
<stop stop-color="#00A3FF"/>
<stop offset="1" stop-color="#0038FF"/>
</lineargradient>
<lineargradient id="paint10_linear_1_243" x1="282.687" y1="259.194" x2="282.687" y2="289.582" gradientunits="userSpaceOnUse">
<stop stop-color="#00A3FF"/>
<stop offset="1" stop-color="#0038FF"/>
</lineargradient>
<lineargradient id="paint11_linear_1_243" x1="306.312" y1="259.194" x2="306.312" y2="289.582" gradientunits="userSpaceOnUse">
<stop stop-color="#00A3FF"/>
<stop offset="1" stop-color="#0038FF"/>
</lineargradient>
<lineargradient id="paint12_linear_1_243" x1="260.375" y1="271.855" x2="260.375" y2="289.582" gradientunits="userSpaceOnUse">
<stop stop-color="#00A3FF"/>
<stop offset="1" stop-color="#0038FF"/>
</lineargradient>
<lineargradient id="paint13_linear_1_243" x1="260.375" y1="259.194" x2="260.375" y2="276.92" gradientunits="userSpaceOnUse">
<stop stop-color="#00A3FF"/>
<stop offset="1" stop-color="#0038FF"/>
</lineargradient>
<lineargradient id="paint14_linear_1_243" x1="328.625" y1="244" x2="328.625" y2="259.194" gradientunits="userSpaceOnUse">
<stop stop-color="#00A3FF"/>
<stop offset="1" stop-color="#0038FF"/>
</lineargradient>
</defs>
</svg>
