<svg width="555" height="611" viewBox="0 0 555 611" fill="none" xmlns="http://www.w3.org/2000/svg">
<g filter="url(#filter0_d_1_263)">
<path d="M271 167L387.913 236.25V374.75L271 444L154.087 374.75V236.25L271 167Z" fill="url(#paint0_linear_1_263)"/>
<path d="M155.087 236.82L271 168.162L386.913 236.82V374.18L271 442.838L155.087 374.18V236.82Z" stroke="url(#paint1_linear_1_263)" stroke-width="2"/>
</g>
<path d="M164.613 242.319L271 179.163L377.387 242.319V368.681L271 431.837L164.613 368.681V242.319Z" fill="url(#paint2_radial_1_263)" stroke="url(#paint3_linear_1_263)" stroke-width="2"/>
<path d="M326.036 300.066C325.958 296.53 323.602 291.453 312.004 287.16C310.595 286.845 309.189 287.692 308.863 289.051C308.59 290.191 309.163 291.363 310.25 291.883C316.926 294.408 320.931 297.414 320.931 300.066C320.931 302.717 317.318 305.521 310.747 308.021L296.374 246.649C295.604 241.061 290.619 236.914 284.776 237.001C283.577 237.006 282.383 237.142 281.215 237.405L240.06 246.346C233.621 247.248 229.159 253.016 230.095 259.227C230.184 259.817 230.32 260.4 230.504 260.969L242.18 311.128C228.802 308.324 221.236 303.904 221.236 300.04C221.236 297.186 225.949 293.827 233.541 291.302C234.907 290.814 235.605 289.349 235.099 288.031C234.593 286.713 233.075 286.04 231.708 286.528C221.236 289.988 216 294.661 216 300.04C216 308.451 228.881 313.754 243.594 316.507L251.605 351.057C252.404 356.6 257.324 360.721 263.125 360.705C264.359 360.692 265.588 360.548 266.79 360.276L307.815 351.335C312.32 350.743 316.049 347.66 317.344 343.455C317.926 341.243 317.926 338.925 317.344 336.712L311.794 313.047C320.146 310.016 326.036 305.773 326.036 300.066ZM235.609 259.858C234.324 256.569 236.047 252.897 239.456 251.658C240.029 251.45 240.628 251.32 241.238 251.271L282.236 242.33C283.026 242.15 283.834 242.057 284.645 242.053C288.101 242.053 290.222 243.921 291.138 247.76L291.661 249.983L236.133 262.106L235.609 259.858ZM253.752 337.293L249.092 317.416C252.234 317.871 255.402 318.199 258.491 318.452H258.7C260.146 318.508 261.365 317.422 261.423 316.027C261.481 314.633 260.356 313.457 258.91 313.401C254.956 313.098 251.291 312.668 247.888 312.138L237.416 267.005L292.813 254.908L305.642 309.638C300.117 311.17 294.468 312.251 288.755 312.87L292.918 308.021C293.906 307.002 293.85 305.404 292.794 304.452C291.738 303.499 290.081 303.552 289.094 304.571C289.02 304.648 288.95 304.729 288.886 304.814L280.666 314.36C280.596 314.465 280.535 314.575 280.482 314.689C280.28 314.953 280.161 315.269 280.142 315.598C280.126 315.758 280.126 315.918 280.142 316.078C280.125 316.237 280.125 316.398 280.142 316.558C280.171 316.713 280.215 316.865 280.273 317.012C280.355 317.156 280.452 317.291 280.561 317.416C280.621 317.531 280.691 317.641 280.77 317.745L288.939 325.7C289.958 326.691 291.617 326.696 292.643 325.713C293.67 324.73 293.676 323.13 292.656 322.139L288.389 317.972C294.584 317.331 300.713 316.199 306.715 314.588L309.202 325.17L253.752 337.293ZM312.239 337.823C312.605 339.224 312.605 340.691 312.239 342.092C311.398 344.478 309.185 346.168 306.584 346.41L265.612 355.351C262.202 356.59 258.397 354.929 257.112 351.64C256.896 351.087 256.761 350.509 256.711 349.921L254.904 342.193L310.433 330.095L312.239 337.823Z" fill="url(#paint4_linear_1_263)"/>
<path d="M293.807 340.652C293.489 339.257 292.059 338.375 290.613 338.682V338.783L276.397 341.789C274.952 341.942 273.908 343.197 274.067 344.592C274.226 345.987 275.528 346.993 276.973 346.84H277.549L291.765 343.733C293.211 343.426 294.125 342.047 293.807 340.652Z" fill="url(#paint5_linear_1_263)"/>
<defs>
<filter id="filter0_d_1_263" x="-12.9135" y="0" width="567.827" height="611" filterUnits="userSpaceOnUse" color-interpolation-filters="sRGB">
<feFlood flood-opacity="0" result="BackgroundImageFix"/>
<feColorMatrix in="SourceAlpha" type="matrix" values="0 0 0 0 0 0 0 0 0 0 0 0 0 0 0 0 0 0 127 0" result="hardAlpha"/>
<feOffset/>
<feGaussianBlur stdDeviation="83.5"/>
<feColorMatrix type="matrix" values="0 0 0 0 0 0 0 0 0 0.34 0 0 0 0 1 0 0 0 0.25 0"/>
<feBlend mode="normal" in2="BackgroundImageFix" result="effect1_dropShadow_1_263"/>
<feBlend mode="normal" in="SourceGraphic" in2="effect1_dropShadow_1_263" result="shape"/>
</filter>
<linearGradient id="paint0_linear_1_263" x1="271" y1="167" x2="271" y2="450" gradientUnits="userSpaceOnUse">
<stop stop-color="#001AFF" stop-opacity="0"/>
<stop offset="1" stop-color="#4200FF" stop-opacity="0.47"/>
</linearGradient>
<linearGradient id="paint1_linear_1_263" x1="271" y1="141.665" x2="271" y2="791.939" gradientUnits="userSpaceOnUse">
<stop stop-color="#0085FF"/>
<stop offset="1" stop-color="#0500FF" stop-opacity="0"/>
</linearGradient>
<radialGradient id="paint2_radial_1_263" cx="0" cy="0" r="1" gradientUnits="userSpaceOnUse" gradientTransform="translate(271 305.5) rotate(90) scale(829.5 806.729)">
<stop stop-color="#000850" stop-opacity="0.13"/>
<stop offset="1" stop-color="#0047FF"/>
</radialGradient>
<linearGradient id="paint3_linear_1_263" x1="271" y1="457.415" x2="301.311" y2="11.9688" gradientUnits="userSpaceOnUse">
<stop stop-color="#00A3FF"/>
<stop offset="1" stop-color="#0500FF" stop-opacity="0"/>
</linearGradient>
<linearGradient id="paint4_linear_1_263" x1="271.018" y1="237" x2="271.018" y2="360.705" gradientUnits="userSpaceOnUse">
<stop stop-color="#00A3FF"/>
<stop offset="1" stop-color="#0038FF"/>
</linearGradient>
<linearGradient id="paint5_linear_1_263" x1="283.961" y1="338.621" x2="283.961" y2="346.855" gradientUnits="userSpaceOnUse">
<stop stop-color="#00A3FF"/>
<stop offset="1" stop-color="#0038FF"/>
</linearGradient>
</defs>
</svg>
