<svg width="330" height="330" viewbox="0 0 330 330" fill="none" xmlns="http://www.w3.org/2000/svg">
<g filter="url(#filter0_f_302_8)">
<circle cx="165" cy="165" r="87" fill="#0A125E"/>
</g>
<path d="M200.814 146.516C200.814 163.315 186.91 176.968 169.716 176.968C152.521 176.968 138.617 163.315 138.617 146.516C138.617 129.717 152.521 116.064 169.716 116.064C186.91 116.064 200.814 129.717 200.814 146.516Z" fill="#14143D" stroke="#0679FF" stroke-width="2"/>
<path d="M146.181 265V216.219C146.181 197.954 133.285 180.931 127.614 163.568C125.996 158.614 125 152.81 125 146.085C125 123.465 142.939 103 169.523 103C186.453 103 219.017 113.987 215.775 152.548C215.864 155.822 215.026 160.713 212.92 165.916C206.613 181.495 195.459 196.605 195.459 213.412V265" stroke="#0094FF"/>
<circle cx="160" cy="205" r="8.5" fill="#151D4A" stroke="#0094FF"/>
<circle cx="181" cy="205" r="8.5" fill="#151D4A" stroke="#0094FF"/>
<rect x="163.5" y="218.5" width="12" height="39" rx="6" fill="#151D4A" stroke="white"/>
<ellipse cx="170" cy="146.5" rx="28" ry="27.5" fill="url(#paint0_radial_302_8)"/>
<path d="M166.768 226.4V225.56H169.024V223.16H169.912V225.56H172.168V226.4H169.912V228.8H169.024V226.4H166.768Z" fill="#00F0FF"/>
<path d="M167.56 251.22V250.24H171.48V251.22H167.56Z" fill="#00F0FF"/>
<path d="M157.332 203.667L156.978 204.02L156.625 203.667L156.978 203.313L157.332 203.667ZM158.999 207.833C158.723 207.833 158.499 207.609 158.499 207.333C158.499 207.057 158.723 206.833 158.999 206.833L158.999 207.833ZM158.645 205.687L156.978 204.02L157.686 203.313L159.352 204.98L158.645 205.687ZM156.978 203.313L158.645 201.646L159.352 202.353L157.686 204.02L156.978 203.313ZM157.332 203.167L160.832 203.167L160.832 204.167L157.332 204.167L157.332 203.167ZM160.832 207.833L158.999 207.833L158.999 206.833L160.832 206.833L160.832 207.833ZM163.165 205.5C163.165 206.789 162.121 207.833 160.832 207.833L160.832 206.833C161.568 206.833 162.165 206.236 162.165 205.5L163.165 205.5ZM160.832 203.167C162.121 203.167 163.165 204.211 163.165 205.5L162.165 205.5C162.165 204.764 161.568 204.167 160.832 204.167L160.832 203.167Z" fill="#00F0FF"/>
<defs>
<filter id="filter0_f_302_8" x="0" y="0" width="330" height="330" filterUnits="userSpaceOnUse" color-interpolation-filters="sRGB">
<feFlood flood-opacity="0" result="BackgroundImageFix"/>
<feBlend mode="normal" in="SourceGraphic" in2="BackgroundImageFix" result="shape"/>
<feGaussianBlur stdDeviation="39" result="effect1_foregroundBlur_302_8"/>
</filter>
<radialgradient id="paint0_radial_302_8" cx="0" cy="0" r="1" gradientunits="userSpaceOnUse" gradienttransform="translate(170 146.5) rotate(90) scale(44.2089 45.0127)">
<stop stop-color="#3854B8"/>
<stop offset="1" stop-color="#021350"/>
</radialgradient>
</defs>
</svg>
