<svg width="81" height="64" viewbox="0 0 81 64" fill="none" xmlns="http://www.w3.org/2000/svg">
<rect x="1" y="1" width="79" height="62" fill="url(#paint0_radial_1_23)" stroke="url(#paint1_linear_1_23)" stroke-width="2"/>
<path d="M41.9759 31.886L41.5756 31.8928L41.4947 32.2849L41.4918 32.2989L41.4816 32.3486L41.4815 32.3992L41.4677 41.7236H38.4824L38.4369 32.3328L38.4345 31.8357L37.9374 31.8352L35.5574 31.8329L35.5094 29.2864L38.0115 29.2547L38.5051 29.2485V28.7548V25.978C38.5051 24.4745 38.976 23.3708 39.7373 22.6414C40.5021 21.9087 41.6163 21.5 43.0021 21.5C44.0327 21.5 44.9528 21.5541 45.5 21.6V24.0002H43.9414C43.0725 24.0002 42.4143 24.199 41.9965 24.6803C41.5916 25.1466 41.5164 25.7653 41.5164 26.3341V28.7407V29.2407H42.0164H45.278L44.8663 31.8368L41.9759 31.886Z" fill="#00A3FF" stroke="#00A3FF"/>
<defs>
<radialgradient id="paint0_radial_1_23" cx="0" cy="0" r="1" gradientunits="userSpaceOnUse" gradienttransform="translate(40.5 32) rotate(90) scale(177.171 224.232)">
<stop stop-color="#001AFF" stop-opacity="0.14"/>
<stop offset="0.515625" stop-color="#00A3FF"/>
</radialgradient>
<lineargradient id="paint1_linear_1_23" x1="40.5" y1="-5.85366" x2="40.5" y2="144.39" gradientunits="userSpaceOnUse">
<stop stop-color="#00D1FF"/>
<stop offset="1" stop-color="#0500FF" stop-opacity="0"/>
</lineargradient>
</defs>
</svg>
