<svg width="81" height="64" viewbox="0 0 81 64" fill="none" xmlns="http://www.w3.org/2000/svg">
<rect x="1" y="1" width="79" height="62" fill="url(#paint0_radial_1_26)" stroke="url(#paint1_linear_1_26)" stroke-width="2"/>
<path d="M45.708 42.0215C44.4478 42.0859 43.1959 42.0808 41.9362 42.0756C41.761 42.0749 41.5858 42.0742 41.4103 42.0736C41.2352 42.0731 41.0603 42.0728 40.8854 42.0724C39.6274 42.0699 38.3751 42.0675 37.1131 41.9954C35.4464 41.9126 33.9708 41.5446 32.7531 40.3651C31.538 39.1881 31.1624 37.763 31.0869 36.1582C31.0199 34.9452 31.0252 33.7382 31.0306 32.5267C31.0313 32.3584 31.0321 32.19 31.0326 32.0214C31.0332 31.8528 31.0335 31.6844 31.0339 31.5161C31.0364 30.3051 31.039 29.0998 31.1138 27.885L45.708 42.0215ZM45.708 42.0215C47.3752 41.9488 48.8557 41.5873 50.0785 40.4177M45.708 42.0215L50.0785 40.4177M50.0785 40.4177C51.3038 39.2456 51.6861 37.8252 51.7721 36.221L50.0785 40.4177ZM51.7912 27.9481L51.7912 27.9482C51.8581 29.1609 51.8528 30.3657 51.8475 31.5783C51.8467 31.7469 51.846 31.9156 51.8455 32.0845C51.8448 32.2734 51.8445 32.4621 51.8442 32.6506C51.8422 33.843 51.8401 35.0281 51.7643 36.2205L51.7643 36.2206C51.6784 37.8238 51.2964 39.2418 50.0731 40.412C48.8523 41.5798 47.3739 41.9411 45.7077 42.0137L45.7076 42.0137C44.4477 42.0781 43.196 42.073 41.9362 42.0678C41.7611 42.0671 41.5858 42.0664 41.4104 42.0658C41.2352 42.0653 41.0603 42.065 40.8855 42.0646C39.6274 42.0621 38.3753 42.0597 37.1135 41.9876L37.1134 41.9876C35.4477 41.9049 33.9743 41.5372 32.7586 40.3595C31.5454 39.1844 31.1701 37.7616 31.0947 36.1579L31.0947 36.1578C31.0277 34.945 31.0331 33.7382 31.0384 32.5268C31.0391 32.3584 31.0399 32.19 31.0404 32.0214C31.041 31.8528 31.0413 31.6844 31.0417 31.5161C31.0442 30.3051 31.0468 29.1 31.1216 27.8855L31.1216 27.8854C31.2075 26.2822 31.5894 24.8641 32.8128 23.6939C34.0336 22.5262 35.512 22.1649 37.1782 22.0923L37.1783 22.0923C38.4382 22.0279 39.6898 22.033 40.9496 22.0382C41.1247 22.0389 41.3 22.0396 41.4755 22.0401C41.6507 22.0407 41.8256 22.041 42.0005 22.0414C43.2586 22.0438 44.5106 22.0463 45.7724 22.1183L45.7724 22.1183C47.4382 22.2011 48.9116 22.5688 50.1273 23.7464C51.3404 24.9215 51.7157 26.3444 51.7912 27.9481ZM37.9763 32.0425C37.9823 30.2069 39.5435 28.7131 41.4512 28.7189C43.3589 28.7247 44.9103 30.2279 44.9044 32.0635C44.8984 33.8991 43.3372 35.3928 41.4295 35.387C39.5218 35.3813 37.9703 33.878 37.9763 32.0425ZM50.1328 23.7408C48.9151 22.5613 47.4395 22.1933 45.7728 22.1105L51.799 27.9477C51.7235 26.343 51.3479 24.9178 50.1328 23.7408ZM36.0906 32.0367C36.0813 34.8868 38.4634 37.1938 41.4236 37.2027C44.3838 37.2117 46.7808 34.9193 46.79 32.0692C46.7993 29.2191 44.4173 26.9122 41.4571 26.9032C38.4969 26.8942 36.0999 29.1867 36.0906 32.0367ZM45.7631 26.7135C45.7609 27.3824 46.3203 27.9239 47.0145 27.926C47.1794 27.9267 47.3428 27.8961 47.4954 27.8359C47.6479 27.7757 47.7867 27.6871 47.9037 27.5752C48.0207 27.4633 48.1136 27.3303 48.1771 27.1837C48.2407 27.0371 48.2735 26.8799 48.2738 26.7211C48.276 26.0521 47.7166 25.5107 47.0224 25.5086C46.3281 25.5065 45.7652 26.0445 45.7631 26.7135Z" fill="#00A3FF" stroke="#00A3FF" stroke-width="0.015625"/>
<defs>
<radialgradient id="paint0_radial_1_26" cx="0" cy="0" r="1" gradientunits="userSpaceOnUse" gradienttransform="translate(40.5 32) rotate(90) scale(177.171 224.232)">
<stop stop-color="#001AFF" stop-opacity="0.14"/>
<stop offset="0.515625" stop-color="#00A3FF"/>
</radialgradient>
<lineargradient id="paint1_linear_1_26" x1="40.5" y1="-5.85366" x2="40.5" y2="144.39" gradientunits="userSpaceOnUse">
<stop stop-color="#00D1FF"/>
<stop offset="1" stop-color="#0500FF" stop-opacity="0"/>
</lineargradient>
</defs>
</svg>
