<svg width="80" height="27" viewbox="0 0 80 27" fill="none" xmlns="http://www.w3.org/2000/svg">
<path d="M6.24064 26.36C4.41664 26.36 2.94064 25.808 1.81264 24.704C0.68464 23.576 0.12064 22.1 0.12064 20.276V6.524C0.12064 4.7 0.68464 3.236 1.81264 2.132C2.94064 1.004 4.41664 0.439999 6.24064 0.439999C8.06464 0.439999 9.54064 1.004 10.6686 2.132C11.7966 3.236 12.3606 4.7 12.3606 6.524V20.276C12.3606 22.1 11.7966 23.576 10.6686 24.704C9.54064 25.808 8.06464 26.36 6.24064 26.36ZM6.24064 22.76C6.96064 22.76 7.52464 22.544 7.93264 22.112C8.34064 21.68 8.54464 21.068 8.54464 20.276V6.524C8.54464 5.732 8.34064 5.12 7.93264 4.688C7.52464 4.256 6.96064 4.04 6.24064 4.04C5.52064 4.04 4.95664 4.256 4.54864 4.688C4.14064 5.12 3.93664 5.732 3.93664 6.524V20.276C3.93664 21.068 4.14064 21.68 4.54864 22.112C4.95664 22.544 5.52064 22.76 6.24064 22.76ZM20.2618 26.36C18.4858 26.36 17.0458 25.808 15.9418 24.704C14.8378 23.6 14.2858 22.16 14.2858 20.384V6.416C14.2858 4.64 14.8378 3.2 15.9418 2.096C17.0458 0.991999 18.4858 0.439999 20.2618 0.439999C22.0378 0.439999 23.4778 0.991999 24.5818 2.096C25.6858 3.2 26.2378 4.64 26.2378 6.416V9.368H22.4938V6.416C22.4938 5.696 22.2898 5.12 21.8818 4.688C21.4738 4.256 20.9458 4.04 20.2978 4.04C19.6498 4.04 19.1218 4.256 18.7138 4.688C18.3058 5.12 18.1018 5.696 18.1018 6.416V20.384C18.1018 21.104 18.3058 21.68 18.7138 22.112C19.1218 22.544 19.6498 22.76 20.2978 22.76C20.9458 22.76 21.4738 22.544 21.8818 22.112C22.2898 21.68 22.4938 21.104 22.4938 20.384V16.784H26.2378V20.384C26.2378 22.16 25.6858 23.6 24.5818 24.704C23.4778 25.808 22.0378 26.36 20.2618 26.36ZM33.903 26.36C32.151 26.36 30.723 25.82 29.619 24.74C28.515 23.636 27.963 22.208 27.963 20.456V0.799998H31.779V20.456C31.779 21.176 31.971 21.74 32.355 22.148C32.763 22.556 33.279 22.76 33.903 22.76C34.527 22.76 35.031 22.556 35.415 22.148C35.823 21.74 36.027 21.176 36.027 20.456V0.799998H39.771V20.456C39.771 22.208 39.231 23.636 38.151 24.74C37.071 25.82 35.655 26.36 33.903 26.36ZM42.1667 0.799998H45.9827V22.4H52.7867V26H42.1667V0.799998ZM61.9925 20.42H57.8885L57.0605 26H53.2445L57.4205 0.799998H62.5325L66.7085 26H62.8205L61.9925 20.42ZM61.4885 16.748L59.9405 6.2L58.3925 16.748H61.4885ZM73.328 26.36C72.128 26.36 71.06 26.096 70.124 25.568C69.188 25.04 68.456 24.308 67.928 23.372C67.424 22.436 67.172 21.368 67.172 20.168V19.268L70.844 18.872V19.808C70.844 20.72 71.06 21.44 71.492 21.968C71.924 22.496 72.524 22.76 73.292 22.76C74.036 22.76 74.624 22.544 75.056 22.112C75.512 21.68 75.74 21.092 75.74 20.348C75.74 19.532 75.5 18.752 75.02 18.008C74.564 17.264 73.64 16.232 72.248 14.912C70.376 13.136 69.092 11.66 68.396 10.484C67.724 9.308 67.388 8.024 67.388 6.632C67.388 4.736 67.904 3.236 68.936 2.132C69.968 1.004 71.384 0.439999 73.184 0.439999C74.984 0.439999 76.4 1.004 77.432 2.132C78.464 3.26 78.98 4.772 78.98 6.668V7.316L75.308 7.712V6.992C75.308 6.032 75.128 5.3 74.768 4.796C74.408 4.292 73.892 4.04 73.22 4.04C72.548 4.04 72.032 4.244 71.672 4.652C71.312 5.06 71.132 5.66 71.132 6.452C71.132 7.244 71.372 8.012 71.852 8.756C72.332 9.476 73.256 10.52 74.624 11.888C76.496 13.76 77.768 15.272 78.44 16.424C79.136 17.552 79.484 18.8 79.484 20.168C79.484 21.368 79.22 22.436 78.692 23.372C78.188 24.308 77.468 25.04 76.532 25.568C75.596 26.096 74.528 26.36 73.328 26.36Z" fill="white"/>
</svg>
