<svg width="568" height="611" viewbox="0 0 568 611" fill="none" xmlns="http://www.w3.org/2000/svg">
<g filter="url(#filter0_d_1_278)">
<path d="M284 167L400.913 236.25V374.75L284 444L167.087 374.75V236.25L284 167Z" fill="url(#paint0_linear_1_278)"/>
<path d="M168.087 236.82L284 168.162L399.913 236.82V374.18L284 442.838L168.087 374.18V236.82Z" stroke="url(#paint1_linear_1_278)" stroke-width="2"/>
</g>
<path d="M177.613 242.319L284 179.163L390.387 242.319V368.681L284 431.837L177.613 368.681V242.319Z" fill="url(#paint2_radial_1_278)" stroke="url(#paint3_linear_1_278)" stroke-width="2"/>
<path d="M282.572 281.629C282.238 281.629 281.905 281.571 281.588 281.455L246.069 268.276C245.015 267.886 244.321 266.905 244.321 265.814C244.321 264.723 245.015 263.743 246.069 263.353L281.588 250.174C282.222 249.942 282.916 249.942 283.55 250.174L319.068 263.353C320.128 263.743 320.822 264.723 320.822 265.814C320.822 266.905 320.128 267.886 319.074 268.276L283.555 281.455C283.238 281.571 282.905 281.629 282.572 281.629ZM254.665 265.814L282.572 276.167L310.478 265.814L282.572 255.461L254.665 265.814Z" fill="url(#paint4_linear_1_278)"/>
<path d="M282.572 323.8C282.238 323.8 281.905 323.742 281.588 323.626L246.069 310.448C245.015 310.058 244.321 309.077 244.321 307.986V265.814C244.321 264.36 245.545 263.179 247.053 263.179C248.561 263.179 249.785 264.36 249.785 265.814V306.178L282.572 318.344L315.358 306.178V265.814C315.358 264.36 316.582 263.179 318.09 263.179C319.598 263.179 320.822 264.36 320.822 265.814V307.986C320.822 309.077 320.128 310.058 319.074 310.448L283.555 323.626C283.238 323.742 282.905 323.8 282.572 323.8Z" fill="url(#paint5_linear_1_278)"/>
<path d="M282.572 323.8C281.064 323.8 279.84 322.619 279.84 321.164V278.993C279.84 277.538 281.064 276.357 282.572 276.357C284.08 276.357 285.304 277.538 285.304 278.993V321.164C285.304 322.619 284.08 323.8 282.572 323.8Z" fill="url(#paint6_linear_1_278)"/>
<path d="M274.374 360.7C273.543 360.7 272.724 360.336 272.188 359.646C271.281 358.481 271.527 356.831 272.735 355.956L280.745 350.157L272.735 344.359C271.527 343.484 271.281 341.834 272.188 340.669C273.095 339.504 274.806 339.272 276.013 340.142L286.942 348.049C287.63 348.544 288.035 349.33 288.035 350.157C288.035 350.985 287.63 351.77 286.942 352.266L276.013 360.173C275.521 360.526 274.948 360.7 274.374 360.7Z" fill="url(#paint7_linear_1_278)"/>
<path d="M282.573 352.793C274.311 352.793 266.491 352.414 259.327 351.67C249.415 350.706 217 346.604 217 334.343C217 329.34 222.35 325.16 232.89 321.923C234.623 321.407 236.481 322.709 236.481 324.438C236.481 325.714 235.563 326.778 234.317 327.021C225.574 329.736 222.464 332.661 222.464 334.343C222.464 337.854 234.076 343.916 259.895 346.425C266.879 347.153 274.502 347.522 282.573 347.522C284.081 347.522 285.305 348.702 285.305 350.157C285.305 351.612 284.081 352.793 282.573 352.793Z" fill="url(#paint8_linear_1_278)"/>
<path d="M301.643 352.002C300.233 352.002 299.037 350.959 298.922 349.583C298.802 348.133 299.922 346.857 301.425 346.741C329.566 344.522 342.681 338.033 342.681 334.343C342.681 332.646 339.517 329.688 330.594 326.947C329.156 326.504 328.364 325.023 328.818 323.637C329.277 322.25 330.807 321.486 332.249 321.923C342.796 325.16 348.145 329.34 348.145 334.343C348.145 347.337 312.725 351.138 301.867 351.997C301.791 352.002 301.714 352.002 301.643 352.002Z" fill="url(#paint9_linear_1_278)"/>
<defs>
<filter id="filter0_d_1_278" x="0.0865707" y="0" width="567.827" height="611" filterUnits="userSpaceOnUse" color-interpolation-filters="sRGB">
<feFlood flood-opacity="0" result="BackgroundImageFix"/>
<feColorMatrix in="SourceAlpha" type="matrix" values="0 0 0 0 0 0 0 0 0 0 0 0 0 0 0 0 0 0 127 0" result="hardAlpha"/>
<feOffset/>
<feGaussianBlur stdDeviation="83.5"/>
<feColorMatrix type="matrix" values="0 0 0 0 0 0 0 0 0 0.34 0 0 0 0 1 0 0 0 0.25 0"/>
<feBlend mode="normal" in2="BackgroundImageFix" result="effect1_dropShadow_1_278"/>
<feBlend mode="normal" in="SourceGraphic" in2="effect1_dropShadow_1_278" result="shape"/>
</filter>
<lineargradient id="paint0_linear_1_278" x1="284" y1="167" x2="284" y2="450" gradientunits="userSpaceOnUse">
<stop stop-color="#001AFF" stop-opacity="0"/>
<stop offset="1" stop-color="#4200FF" stop-opacity="0.47"/>
</lineargradient>
<lineargradient id="paint1_linear_1_278" x1="284" y1="141.665" x2="284" y2="791.939" gradientunits="userSpaceOnUse">
<stop stop-color="#0085FF"/>
<stop offset="1" stop-color="#0500FF" stop-opacity="0"/>
</lineargradient>
<radialgradient id="paint2_radial_1_278" cx="0" cy="0" r="1" gradientunits="userSpaceOnUse" gradienttransform="translate(284 305.5) rotate(90) scale(829.5 806.729)">
<stop stop-color="#000850" stop-opacity="0.13"/>
<stop offset="1" stop-color="#0047FF"/>
</radialgradient>
<lineargradient id="paint3_linear_1_278" x1="284" y1="457.415" x2="314.311" y2="11.9688" gradientunits="userSpaceOnUse">
<stop stop-color="#00A3FF"/>
<stop offset="1" stop-color="#0500FF" stop-opacity="0"/>
</lineargradient>
<lineargradient id="paint4_linear_1_278" x1="282.572" y1="250" x2="282.572" y2="281.629" gradientunits="userSpaceOnUse">
<stop stop-color="#00A3FF"/>
<stop offset="1" stop-color="#0038FF"/>
</lineargradient>
<lineargradient id="paint5_linear_1_278" x1="282.572" y1="263.179" x2="282.572" y2="323.8" gradientunits="userSpaceOnUse">
<stop stop-color="#00A3FF"/>
<stop offset="1" stop-color="#0038FF"/>
</lineargradient>
<lineargradient id="paint6_linear_1_278" x1="282.572" y1="276.357" x2="282.572" y2="323.8" gradientunits="userSpaceOnUse">
<stop stop-color="#00A3FF"/>
<stop offset="1" stop-color="#0038FF"/>
</lineargradient>
<lineargradient id="paint7_linear_1_278" x1="279.838" y1="339.616" x2="279.838" y2="360.7" gradientunits="userSpaceOnUse">
<stop stop-color="#00A3FF"/>
<stop offset="1" stop-color="#0038FF"/>
</lineargradient>
<lineargradient id="paint8_linear_1_278" x1="251.152" y1="321.809" x2="251.152" y2="352.793" gradientunits="userSpaceOnUse">
<stop stop-color="#00A3FF"/>
<stop offset="1" stop-color="#0038FF"/>
</lineargradient>
<lineargradient id="paint9_linear_1_278" x1="323.529" y1="321.8" x2="323.529" y2="352.002" gradientunits="userSpaceOnUse">
<stop stop-color="#00A3FF"/>
<stop offset="1" stop-color="#0038FF"/>
</lineargradient>
</defs>
</svg>
