<svg width="568" height="611" viewbox="0 0 568 611" fill="none" xmlns="http://www.w3.org/2000/svg">
<g filter="url(#filter0_d_1_229)">
<path d="M284 167L400.913 236.25V374.75L284 444L167.087 374.75V236.25L284 167Z" fill="url(#paint0_linear_1_229)"/>
<path d="M168.087 236.82L284 168.162L399.913 236.82V374.18L284 442.838L168.087 374.18V236.82Z" stroke="url(#paint1_linear_1_229)" stroke-width="2"/>
</g>
<path d="M177.613 242.319L284 179.163L390.387 242.319V368.681L284 431.837L177.613 368.681V242.319Z" fill="url(#paint2_radial_1_229)" stroke="url(#paint3_linear_1_229)" stroke-width="2"/>
<path d="M229.913 273.494C230.926 273.494 231.87 272.892 232.229 271.914C237.78 256.86 252.657 246.743 269.246 246.743C279.748 246.743 289.626 250.694 297.055 257.861C297.792 258.572 298.53 259.322 299.218 260.123C300.089 261.133 301.642 261.262 302.685 260.422C303.727 259.583 303.865 258.088 302.994 257.083C302.208 256.172 301.367 255.309 300.526 254.507C292.173 246.444 281.061 242 269.246 242C250.578 242 233.841 253.383 227.597 270.33C227.14 271.563 227.809 272.92 229.087 273.361C229.362 273.451 229.638 273.494 229.913 273.494Z" fill="url(#paint4_linear_1_229)"/>
<path d="M242.208 355.833H286.458C287.815 355.833 288.917 354.771 288.917 353.462V337.691L300.785 341.173C301.587 341.448 302.59 341.604 303.667 341.604C309.09 341.604 313.5 337.35 313.5 332.118V317.889H323.333C326.092 317.889 328.25 315.807 328.25 313.146C328.25 312.254 327.989 311.4 327.488 310.613L320.546 300.022C319.818 298.912 318.294 298.585 317.153 299.287C316.008 299.984 315.663 301.449 316.391 302.555L323.324 313.132L311.042 313.146C309.685 313.146 308.583 314.208 308.583 315.517V332.118C308.583 334.732 306.381 336.861 303.667 336.861C303.155 336.861 302.703 336.795 302.324 336.667L287.176 332.218C286.429 332.009 285.618 332.137 284.998 332.583C284.369 333.029 284 333.74 284 334.49V351.09H244.667V329.604C244.667 321.332 242.051 313.336 237.095 306.477C232.395 300.088 229.917 292.561 229.917 284.687C229.917 283.378 228.815 282.316 227.458 282.316C226.101 282.316 225 283.378 225 284.687C225 293.548 227.788 302.028 233.073 309.204C237.434 315.247 239.75 322.309 239.75 329.604V353.462C239.75 354.771 240.851 355.833 242.208 355.833Z" fill="url(#paint5_linear_1_229)"/>
<path d="M291.375 303.66H330.708C337.488 303.66 343 298.338 343 291.802V268.087C343 261.551 337.488 256.229 330.708 256.229H291.375C287.309 256.229 284 259.421 284 263.344V270.458C284 271.767 285.101 272.83 286.458 272.83C287.815 272.83 288.917 271.767 288.917 270.458V263.344C288.917 262.035 290.023 260.972 291.375 260.972H330.708C334.774 260.972 338.083 264.164 338.083 268.087V291.802C338.083 295.725 334.774 298.917 330.708 298.917H291.375C290.023 298.917 288.917 297.854 288.917 296.545V289.431C288.917 288.122 287.815 287.059 286.458 287.059C285.101 287.059 284 288.122 284 289.431V296.545C284 300.468 287.309 303.66 291.375 303.66Z" fill="url(#paint6_linear_1_229)"/>
<path d="M232.452 291.95H301.285C305.351 291.95 308.66 288.758 308.66 284.836V275.35C308.66 271.427 305.351 268.235 301.285 268.235H232.452C228.386 268.235 225.077 271.427 225.077 275.35V284.836C225.077 288.758 228.386 291.95 232.452 291.95ZM301.285 272.978C302.637 272.978 303.743 274.041 303.743 275.35V284.836C303.743 286.145 302.637 287.207 301.285 287.207H232.452C231.1 287.207 229.994 286.145 229.994 284.836V275.35C229.994 274.041 231.1 272.978 232.452 272.978H301.285Z" fill="url(#paint7_linear_1_229)"/>
<path d="M325.792 303.66C327.149 303.66 328.25 302.597 328.25 301.288V258.601C328.25 257.292 327.149 256.229 325.792 256.229C324.435 256.229 323.333 257.292 323.333 258.601V301.288C323.333 302.597 324.435 303.66 325.792 303.66Z" fill="url(#paint8_linear_1_229)"/>
<defs>
<filter id="filter0_d_1_229" x="0.0865784" y="0" width="567.827" height="611" filterUnits="userSpaceOnUse" color-interpolation-filters="sRGB">
<feFlood flood-opacity="0" result="BackgroundImageFix"/>
<feColorMatrix in="SourceAlpha" type="matrix" values="0 0 0 0 0 0 0 0 0 0 0 0 0 0 0 0 0 0 127 0" result="hardAlpha"/>
<feOffset/>
<feGaussianBlur stdDeviation="83.5"/>
<feColorMatrix type="matrix" values="0 0 0 0 0 0 0 0 0 0.34 0 0 0 0 1 0 0 0 0.25 0"/>
<feBlend mode="normal" in2="BackgroundImageFix" result="effect1_dropShadow_1_229"/>
<feBlend mode="normal" in="SourceGraphic" in2="effect1_dropShadow_1_229" result="shape"/>
</filter>
<lineargradient id="paint0_linear_1_229" x1="284" y1="167" x2="284" y2="450" gradientunits="userSpaceOnUse">
<stop stop-color="#001AFF" stop-opacity="0"/>
<stop offset="1" stop-color="#4200FF" stop-opacity="0.47"/>
</lineargradient>
<lineargradient id="paint1_linear_1_229" x1="284" y1="141.665" x2="284" y2="791.939" gradientunits="userSpaceOnUse">
<stop stop-color="#0085FF"/>
<stop offset="1" stop-color="#0500FF" stop-opacity="0"/>
</lineargradient>
<radialgradient id="paint2_radial_1_229" cx="0" cy="0" r="1" gradientunits="userSpaceOnUse" gradienttransform="translate(284 305.5) rotate(90) scale(829.5 806.729)">
<stop stop-color="#000850" stop-opacity="0.13"/>
<stop offset="1" stop-color="#0047FF"/>
</radialgradient>
<lineargradient id="paint3_linear_1_229" x1="284" y1="457.415" x2="314.311" y2="11.9688" gradientunits="userSpaceOnUse">
<stop stop-color="#00A3FF"/>
<stop offset="1" stop-color="#0500FF" stop-opacity="0"/>
</lineargradient>
<lineargradient id="paint4_linear_1_229" x1="265.51" y1="242" x2="265.51" y2="273.494" gradientunits="userSpaceOnUse">
<stop stop-color="#00A3FF"/>
<stop offset="1" stop-color="#0038FF"/>
</lineargradient>
<lineargradient id="paint5_linear_1_229" x1="276.625" y1="282.316" x2="276.625" y2="355.833" gradientunits="userSpaceOnUse">
<stop stop-color="#00A3FF"/>
<stop offset="1" stop-color="#0038FF"/>
</lineargradient>
<lineargradient id="paint6_linear_1_229" x1="313.5" y1="256.229" x2="313.5" y2="303.66" gradientunits="userSpaceOnUse">
<stop stop-color="#00A3FF"/>
<stop offset="1" stop-color="#0038FF"/>
</lineargradient>
<lineargradient id="paint7_linear_1_229" x1="266.868" y1="268.235" x2="266.868" y2="291.95" gradientunits="userSpaceOnUse">
<stop stop-color="#00A3FF"/>
<stop offset="1" stop-color="#0038FF"/>
</lineargradient>
<lineargradient id="paint8_linear_1_229" x1="325.792" y1="256.229" x2="325.792" y2="303.66" gradientunits="userSpaceOnUse">
<stop stop-color="#00A3FF"/>
<stop offset="1" stop-color="#0038FF"/>
</lineargradient>
</defs>
</svg>
