<svg width="81" height="64" viewbox="0 0 81 64" fill="none" xmlns="http://www.w3.org/2000/svg">
<rect x="1" y="1" width="79" height="62" fill="url(#paint0_radial_1_29)" stroke="url(#paint1_linear_1_29)" stroke-width="2"/>
<path d="M48.465 28.3533C48.4616 33.2634 44.5232 38.9355 37.2885 38.9355C35.8484 38.9355 34.4308 38.6722 33.1143 38.1687C34.6655 37.9769 36.1412 37.3939 37.3756 36.4703L38.5423 35.5974L37.0854 35.5701C35.7971 35.5459 34.6865 34.891 34.0687 33.9331C34.4653 33.9287 34.851 33.8766 35.2185 33.7833L35.1893 32.8076C33.7806 32.5385 32.6884 31.504 32.3861 30.2063C32.7924 30.331 33.2166 30.4013 33.6461 30.4144L35.4547 30.4694L33.931 29.4936C33.4315 29.1737 33.0276 28.7482 32.751 28.2568C32.4745 27.7656 32.3326 27.222 32.3351 26.6725H32.3351V26.6702C32.3351 26.2927 32.3993 25.9299 32.5194 25.5912C34.6138 27.7381 37.5497 29.1259 40.8261 29.2843L41.5011 29.3169L41.3349 28.6619C41.2728 28.4173 41.2413 28.1623 41.2413 27.8976C41.2413 26.0459 42.8302 24.5 44.8441 24.5C45.89 24.5 46.8294 24.9176 47.4836 25.5803L47.6703 25.7694L47.9315 25.7205C48.3626 25.6398 48.7832 25.5291 49.19 25.3906C48.9584 25.6282 48.691 25.835 48.3949 26.0031L48.6977 26.9348C48.9498 26.9064 49.2002 26.8676 49.4482 26.8186C49.2035 27.0371 48.9433 27.2414 48.669 27.4301L48.4456 27.5836L48.4524 27.8546L48.465 28.3533Z" fill="#00A3FF" stroke="#00A3FF"/>
<defs>
<radialgradient id="paint0_radial_1_29" cx="0" cy="0" r="1" gradientunits="userSpaceOnUse" gradienttransform="translate(40.5 32) rotate(90) scale(177.171 224.232)">
<stop stop-color="#001AFF" stop-opacity="0.14"/>
<stop offset="0.515625" stop-color="#00A3FF"/>
</radialgradient>
<lineargradient id="paint1_linear_1_29" x1="40.5" y1="-5.85366" x2="40.5" y2="144.39" gradientunits="userSpaceOnUse">
<stop stop-color="#00D1FF"/>
<stop offset="1" stop-color="#0500FF" stop-opacity="0"/>
</lineargradient>
</defs>
</svg>
