<svg width="330" height="330" viewbox="0 0 330 330" fill="none" xmlns="http://www.w3.org/2000/svg">
<g filter="url(#filter0_f_302_9)">
<circle cx="165" cy="165" r="87" fill="#0A125E"/>
</g>
<path d="M195.814 146.516C195.814 163.315 181.91 176.968 164.716 176.968C147.521 176.968 133.617 163.315 133.617 146.516C133.617 129.717 147.521 116.064 164.716 116.064C181.91 116.064 195.814 129.717 195.814 146.516Z" fill="#14143D" stroke="#0679FF" stroke-width="2"/>
<path d="M141.181 265V216.219C141.181 197.954 128.285 180.931 122.614 163.568C120.996 158.614 120 152.81 120 146.085C120 123.465 137.939 103 164.523 103C181.453 103 214.017 113.987 210.775 152.548C210.864 155.822 210.026 160.713 207.92 165.916C201.613 181.495 190.459 196.605 190.459 213.412V265" stroke="#0094FF"/>
<circle cx="155" cy="205" r="8.5" fill="#151D4A" stroke="white"/>
<circle cx="176" cy="205" r="8.5" fill="#151D4A" stroke="white"/>
<rect x="158.5" y="218.5" width="12" height="39" rx="6" fill="#151D4A" stroke="#0094FF"/>
<ellipse cx="165" cy="146.5" rx="28" ry="27.5" fill="url(#paint0_radial_302_9)"/>
<path d="M161.768 226.4V225.56H164.024V223.16H164.912V225.56H167.168V226.4H164.912V228.8H164.024V226.4H161.768Z" fill="#00F0FF"/>
<path d="M162.56 251.22V250.24H166.48V251.22H162.56Z" fill="#00F0FF"/>
<path d="M152.332 203.667L151.978 204.02L151.625 203.667L151.978 203.313L152.332 203.667ZM153.999 207.833C153.723 207.833 153.499 207.609 153.499 207.333C153.499 207.057 153.723 206.833 153.999 206.833L153.999 207.833ZM153.645 205.687L151.978 204.02L152.686 203.313L154.352 204.98L153.645 205.687ZM151.978 203.313L153.645 201.646L154.352 202.353L152.686 204.02L151.978 203.313ZM152.332 203.167L155.832 203.167L155.832 204.167L152.332 204.167L152.332 203.167ZM155.832 207.833L153.999 207.833L153.999 206.833L155.832 206.833L155.832 207.833ZM158.165 205.5C158.165 206.789 157.121 207.833 155.832 207.833L155.832 206.833C156.568 206.833 157.165 206.236 157.165 205.5L158.165 205.5ZM155.832 203.167C157.121 203.167 158.165 204.211 158.165 205.5L157.165 205.5C157.165 204.764 156.568 204.167 155.832 204.167L155.832 203.167Z" fill="#00F0FF"/>
<path d="M174.774 208.545V207.313C174.774 206.999 175.039 206.744 175.367 206.742H176.57C176.899 206.742 177.167 206.998 177.167 207.313V207.313V208.549C177.167 208.815 177.389 209.033 177.668 209.039H178.47C179.269 209.039 179.917 208.42 179.917 207.657V207.657V204.15C179.912 203.85 179.765 203.568 179.516 203.385L176.774 201.275C176.294 200.908 175.611 200.908 175.131 201.275L172.401 203.389C172.151 203.571 172.003 203.854 172 204.154V207.657C172 208.42 172.648 209.039 173.447 209.039H174.249C174.534 209.039 174.766 208.818 174.766 208.545V208.545" stroke="#00F0FF" stroke-linecap="round" stroke-linejoin="round"/>
<defs>
<filter id="filter0_f_302_9" x="0" y="0" width="330" height="330" filterUnits="userSpaceOnUse" color-interpolation-filters="sRGB">
<feFlood flood-opacity="0" result="BackgroundImageFix"/>
<feBlend mode="normal" in="SourceGraphic" in2="BackgroundImageFix" result="shape"/>
<feGaussianBlur stdDeviation="39" result="effect1_foregroundBlur_302_9"/>
</filter>
<radialgradient id="paint0_radial_302_9" cx="0" cy="0" r="1" gradientunits="userSpaceOnUse" gradienttransform="translate(165 146.5) rotate(90) scale(44.2089 45.0127)">
<stop stop-color="#3854B8"/>
<stop offset="1" stop-color="#021350"/>
</radialgradient>
</defs>
</svg>
