<svg width="81" height="64" viewbox="0 0 81 64" fill="none" xmlns="http://www.w3.org/2000/svg">
<rect x="1" y="1" width="79" height="62" fill="url(#paint0_radial_1_32)" stroke="url(#paint1_linear_1_32)" stroke-width="2"/>
<path d="M40.8032 25L40.8031 25.0078L40.8029 25.0078L40.8019 25.0078L40.7979 25.0078L40.782 25.0078L40.7199 25.0079C40.6654 25.008 40.5852 25.0082 40.4824 25.0087C40.277 25.0095 39.9814 25.0113 39.621 25.0147C38.9002 25.0217 37.9199 25.0355 36.8821 25.0632C35.8442 25.0909 34.7489 25.1324 33.798 25.1947C32.8469 25.2569 32.0408 25.34 31.5812 25.4505C31.0818 25.5712 30.6267 25.8079 30.2614 26.1366C29.8962 26.4654 29.6337 26.8747 29.5002 27.3234L40.8032 25ZM40.8032 25L40.8033 25.0078L40.8035 25.0078L40.8046 25.0078L40.8086 25.0078L40.8244 25.0078L40.8865 25.0079C40.9411 25.008 41.0213 25.0082 41.124 25.0087C41.3294 25.0096 41.625 25.0113 41.9854 25.0148C42.7062 25.0217 43.6865 25.0356 44.7243 25.0635C45.7622 25.0913 46.8575 25.133 47.8084 25.1957C48.7595 25.2583 49.5656 25.3417 50.0253 25.4529C50.5244 25.574 50.9793 25.8108 51.3445 26.1395C51.7096 26.4682 51.9723 26.8773 52.1063 27.3258C52.3523 28.1526 52.4754 29.4302 52.537 30.5017C52.5678 31.0373 52.5832 31.5212 52.5909 31.8712C52.5948 32.0462 52.5967 32.1877 52.5976 32.2855C52.5978 32.3017 52.5979 32.3166 52.598 32.3304C52.5983 32.3582 52.5984 32.3808 52.5985 32.3981L52.5986 32.4273L52.5986 32.4348L52.5986 32.4366V32.4371V32.4372L52.6064 32.4373L40.8032 25ZM38.4662 35.6111H38.4752L44.5744 32.4205L44.5707 32.4136L44.5671 32.4066L44.5645 32.4015L38.462 29.2565L38.4584 29.2634L38.4548 29.2703L38.4506 29.2786V35.6111H38.4584H38.4662Z" fill="#00A3FF" stroke="#00A3FF" stroke-width="0.015625"/>
<defs>
<radialgradient id="paint0_radial_1_32" cx="0" cy="0" r="1" gradientunits="userSpaceOnUse" gradienttransform="translate(40.5 32) rotate(90) scale(177.171 224.232)">
<stop stop-color="#001AFF" stop-opacity="0.14"/>
<stop offset="0.515625" stop-color="#00A3FF"/>
</radialgradient>
<lineargradient id="paint1_linear_1_32" x1="40.5" y1="-5.85366" x2="40.5" y2="144.39" gradientunits="userSpaceOnUse">
<stop stop-color="#00D1FF"/>
<stop offset="1" stop-color="#0500FF" stop-opacity="0"/>
</lineargradient>
</defs>
</svg>
